<svg width="191" height="47" viewBox="0 0 191 47" fill="none" xmlns="http://www.w3.org/2000/svg">
<path d="M177.067 33.2047C176.707 33.2047 176.414 33.0922 176.189 32.8673L174.806 31.5177C173.636 32.6424 172.568 33.2047 171.601 33.2047C171.173 33.2047 170.825 33.0697 170.555 32.7998L164.617 26.828C164.257 26.4681 164.077 25.917 164.077 25.1748C164.077 23.6902 164.684 22.1945 165.899 20.6875C166.191 20.3276 166.472 20.0127 166.742 19.7428C167.867 18.6181 169.082 17.7409 170.386 17.1111C171.691 16.4588 172.793 16.1327 173.693 16.1327C174.053 16.1327 174.356 16.2564 174.604 16.5038L174.975 16.8749L182.33 7.83285C182.51 7.63042 182.825 7.50671 183.275 7.46172L184.32 7.36051C184.568 7.33802 184.737 7.37175 184.827 7.46172L190.798 13.4336C190.978 13.6135 190.978 13.8272 190.798 14.0746L182.87 23.7577L185.029 25.917C185.164 26.052 185.164 26.2094 185.029 26.3894C183.499 28.2113 182.319 29.5496 181.486 30.4043C179.574 32.2712 178.101 33.2047 177.067 33.2047Z" fill="black"/>
<path d="M169.808 29.8307C167.582 32.0575 165.838 33.1709 164.579 33.1709C164.196 33.1709 163.893 33.0584 163.668 32.8335L157.696 26.8954C157.449 26.648 157.325 26.2769 157.325 25.782C157.325 24.4325 157.786 22.9929 158.708 21.4634C159.608 19.9114 160.913 18.067 162.622 15.9302C165.861 11.9265 168.301 9.1149 169.943 7.49542C172.215 5.22365 173.947 4.08777 175.139 4.08777C175.477 4.08777 175.747 4.18899 175.949 4.39142L181.887 10.3632C182.112 10.5882 182.224 10.8693 182.224 11.2067C182.224 12.0839 181.606 13.1636 180.369 14.4457C179.739 15.053 178.963 15.7165 178.041 16.4363C177.141 17.1561 175.983 18.0333 174.566 19.0679C173.149 20.1026 172.125 20.8561 171.495 21.3285L170.146 23.1841L172.879 25.917C173.036 26.0744 173.047 26.2319 172.912 26.3893C172.013 27.514 170.978 28.6611 169.808 29.8307Z" fill="black"/>
<path d="M160.011 29.8307C159.089 30.8204 158.088 31.6301 157.008 32.2599C155.929 32.8897 155.029 33.2046 154.309 33.2046C153.859 33.2046 153.488 33.0584 153.196 32.766L147.258 26.8617C146.83 26.4568 146.617 25.8495 146.617 25.0398C146.662 23.5553 147.224 22.1157 148.304 20.7212C148.551 20.3838 148.877 20.0126 149.282 19.6078C150.272 18.6181 151.374 17.7971 152.589 17.1448C153.803 16.4925 154.883 16.1664 155.827 16.1664C156.412 16.1664 156.828 16.2901 157.076 16.5375L163.081 22.5431C163.261 22.723 163.374 22.9592 163.419 23.2516L166.084 25.917C166.242 26.0744 166.242 26.2431 166.084 26.4231C165.409 27.2553 164.87 27.8739 164.465 28.2787C163.542 29.2009 162.688 29.662 161.901 29.662C161.406 29.662 161.001 29.5046 160.686 29.1897L160.618 29.1222L160.011 29.8307Z" fill="black"/>
<path d="M132.469 46.4304C132.087 46.4304 131.783 46.3179 131.558 46.093L125.586 40.1212C125.316 39.8512 125.181 39.4239 125.181 38.8391C125.181 37.422 125.901 35.9937 127.341 34.5542C128.96 32.9347 131.907 31.0341 136.18 28.8523L136.383 28.5486L134.662 26.8279C134.347 26.513 134.19 26.0182 134.19 25.3434C134.19 23.8139 134.887 22.2057 136.281 20.5187C136.506 20.2038 136.765 19.9114 137.057 19.6415C138.047 18.6518 139.172 17.8308 140.431 17.1786C141.691 16.5038 142.759 16.1664 143.637 16.1664C144.131 16.1664 144.48 16.2676 144.682 16.47L145.222 17.0099L145.29 16.9086C145.38 16.7737 145.436 16.695 145.458 16.6725C145.616 16.515 146.021 16.4363 146.673 16.4363C147.348 16.4363 147.764 16.515 147.921 16.6725L153.826 22.6106C153.938 22.723 153.949 22.8467 153.86 22.9817L153.218 23.7577L155.378 25.917C155.535 26.0744 155.546 26.2319 155.412 26.3893C154.512 27.4465 153.758 28.2787 153.151 28.886C150.812 31.2253 147.865 33.1934 144.311 34.7904L143.738 35.5326C140.431 39.7388 138.137 42.4829 136.855 43.765C135.033 45.5419 133.571 46.4304 132.469 46.4304Z" fill="black"/>
<path d="M134.861 33.2046C134.389 33.2046 134.018 33.0697 133.748 32.7998L130.846 29.8982L128.586 32.6648C128.406 32.8448 127.978 32.9347 127.303 32.9347C126.651 32.9347 126.224 32.8335 126.021 32.6311L120.184 26.7605C120.072 26.648 120.061 26.5243 120.151 26.3893L123.39 22.4081L121.433 20.4513C121.275 20.2938 121.264 20.1251 121.399 19.9452C122.254 19.0005 122.827 18.3819 123.12 18.0895C124.402 16.8074 125.538 16.1664 126.527 16.1664C127.045 16.1664 127.427 16.2901 127.675 16.5375L129.092 17.9883C130.396 16.7737 131.498 16.1664 132.398 16.1664C132.983 16.1664 133.433 16.3238 133.748 16.6387L137.054 19.9114C137.099 19.9114 137.144 19.9339 137.189 19.9789L143.161 25.917C143.296 26.0519 143.307 26.1981 143.195 26.3556C142.295 27.4802 141.249 28.6386 140.057 29.8307C137.808 32.08 136.076 33.2046 134.861 33.2046Z" fill="black"/>
<path d="M128.471 18.8318C128.111 18.8318 127.852 18.7531 127.695 18.5956L121.824 12.725C121.599 12.5001 121.487 12.1852 121.487 11.7803C121.487 11.4204 121.644 11.0718 121.959 10.7344C122.296 10.3745 122.701 10.1946 123.174 10.1946C123.488 10.1946 123.736 10.2846 123.916 10.4645L129.888 16.4363C130.068 16.6163 130.158 16.8637 130.158 17.1786C130.158 17.6059 129.989 17.9883 129.651 18.3257C129.337 18.6631 128.943 18.8318 128.471 18.8318ZM119.53 33.2047C119.102 33.2047 118.742 33.0585 118.45 32.7661L112.478 26.828C112.163 26.5131 112.006 26.052 112.006 25.4447C112.006 24.2301 112.546 22.9592 113.625 21.6321L117.539 16.8074C117.719 16.56 118.169 16.4363 118.889 16.4363C119.541 16.4363 119.935 16.5038 120.07 16.6388L126.041 22.6106C126.154 22.723 126.154 22.8468 126.041 22.9817L125.535 23.6228L127.83 25.917C127.987 26.0745 127.998 26.2319 127.863 26.3894L124.726 29.8307C123.871 30.7754 122.949 31.5739 121.959 32.2262C120.969 32.8785 120.16 33.2047 119.53 33.2047Z" fill="black"/>
<path d="M97.3246 10.3295C97.0097 10.6444 96.7398 11.0268 96.5149 11.4767C96.8973 11.5441 97.5046 11.6004 98.3368 11.6453C98.9216 10.9031 99.4727 10.2733 99.99 9.75596C100.327 9.41857 100.912 8.88999 101.744 8.17022C99.7201 8.68755 98.2468 9.40732 97.3246 10.3295ZM106.704 20.9573C107.356 20.4175 108.099 19.7315 108.931 18.8993C109.313 18.5169 109.594 18.2245 109.774 18.022C109.617 18.0445 109.302 18.0895 108.83 18.157C107.975 19.2142 107.266 20.1476 106.704 20.9573ZM99.5852 40.9646C97.6958 40.9646 96.2225 40.4586 95.1653 39.4464L89.2273 33.4746C88.3275 32.5749 87.8777 31.3602 87.8777 29.8307C87.8777 28.3462 88.2826 27.1991 89.0923 26.3893C89.6771 25.8045 90.3856 25.5121 91.2179 25.5121C91.8926 25.5121 92.4437 25.7033 92.8711 26.0857L98.8429 32.0575C99.0004 32.215 99.1353 32.4399 99.2478 32.7323C100.305 32.125 101.441 31.2365 102.655 30.0669C102.88 29.8195 103.184 29.5046 103.566 29.1222L97.6958 23.2179C96.5936 22.1157 96.0426 20.4962 96.0426 18.3594C96.0426 17.3698 96.155 16.4476 96.38 15.5928L90.7118 9.92465C89.9245 9.13741 89.5309 8.18147 89.5309 7.05683C89.5309 5.66228 90.1045 4.39144 91.2516 3.24431C92.2188 2.27712 93.5234 1.51236 95.1653 0.950047C96.8073 0.387727 98.6067 0.106567 100.564 0.106567C104.522 0.106567 108.256 0.848828 111.765 2.33335C114.509 1.2537 116.792 0.713872 118.614 0.713872C119.536 0.713872 120.189 0.90506 120.571 1.28744L126.543 7.25926C126.835 7.52918 126.981 7.93405 126.981 8.47387C126.981 9.37358 126.475 10.352 125.463 11.4092C124.631 12.1964 123.63 12.9499 122.46 13.6697L123.81 15.0193C123.9 15.1092 123.945 15.2105 123.945 15.3229C123.945 15.5928 123.664 16.0764 123.101 16.7737C122.539 17.4485 121.786 18.3032 120.841 19.3379C119.919 20.35 119.345 20.9798 119.12 21.2273C118.535 22.3519 117.872 24.2638 117.13 26.9629C116.387 29.6845 115.521 31.7764 114.532 33.2384C114.082 33.9132 113.519 34.588 112.845 35.2627C111.18 36.9497 109.133 38.3218 106.704 39.3789C104.275 40.4361 101.902 40.9646 99.5852 40.9646Z" fill="black"/>
<path d="M92.3487 29.5946C89.9419 32.0013 88.0975 33.2046 86.8154 33.2046C86.3431 33.2046 85.9832 33.0809 85.7358 32.8335L84.4874 31.5852C83.2278 32.6423 82.1369 33.1709 81.2147 33.1709C80.7649 33.1709 80.4163 33.0472 80.1688 32.7998L74.2307 26.8279C73.8709 26.4681 73.6909 25.9507 73.6909 25.2759C73.6909 23.9039 74.287 22.5093 75.4791 21.0923C75.929 20.5525 76.2326 20.2038 76.39 20.0464C77.5372 18.8993 78.8193 17.9658 80.2363 17.246C81.6758 16.5263 82.9017 16.1664 83.9139 16.1664C84.2962 16.1664 84.5999 16.2676 84.8248 16.47L85.2297 16.8412C85.4321 16.5713 85.8707 16.4363 86.5455 16.4363C87.1528 16.4363 87.5689 16.5263 87.7939 16.7062L93.6982 22.5768C93.8107 22.6893 93.8107 22.8242 93.6982 22.9817L93.0572 23.7239L95.2502 25.917C95.4077 26.0744 95.4189 26.2319 95.284 26.3893C94.2943 27.5815 93.3158 28.6499 92.3487 29.5946Z" fill="black"/>
<path d="M74.5984 33.2046C74.1261 33.2046 73.7549 33.0697 73.485 32.7998L70.5835 29.8982L68.3229 32.6648C68.143 32.8448 67.7156 32.9347 67.0409 32.9347C66.3886 32.9347 65.9612 32.8335 65.7588 32.6311L59.9219 26.7605C59.8094 26.648 59.7982 26.5243 59.8882 26.3893L63.1271 22.4081L61.1703 20.4513C61.0128 20.2938 61.0016 20.1251 61.1365 19.9452C61.9912 19.0005 62.5648 18.3819 62.8572 18.0895C64.1393 16.8074 65.2752 16.1664 66.2649 16.1664C66.7822 16.1664 67.1646 16.2901 67.412 16.5375L68.829 17.9883C70.1336 16.7737 71.2358 16.1664 72.1355 16.1664C72.7203 16.1664 73.1701 16.3238 73.485 16.6387L76.7915 19.9114C76.8365 19.9114 76.8814 19.9339 76.9264 19.9789L82.8983 25.917C83.0332 26.0519 83.0445 26.1981 82.932 26.3556C82.0323 27.4802 80.9864 28.6386 79.7942 29.8307C77.545 32.08 75.813 33.2046 74.5984 33.2046Z" fill="black"/>
<path d="M68.208 18.8318C67.8482 18.8318 67.5895 18.7531 67.432 18.5956L61.5614 12.725C61.3365 12.5001 61.224 12.1852 61.224 11.7803C61.224 11.4204 61.3815 11.0718 61.6964 10.7344C62.0338 10.3745 62.4386 10.1946 62.911 10.1946C63.2259 10.1946 63.4733 10.2846 63.6533 10.4645L69.6251 16.4363C69.805 16.6163 69.895 16.8637 69.895 17.1786C69.895 17.6059 69.7263 17.9883 69.3889 18.3257C69.074 18.6631 68.6804 18.8318 68.208 18.8318ZM59.2672 33.2047C58.8398 33.2047 58.4799 33.0585 58.1875 32.7661L52.2157 26.828C51.9008 26.5131 51.7433 26.052 51.7433 25.4447C51.7433 24.2301 52.2832 22.9592 53.3628 21.6321L57.2766 16.8074C57.4565 16.56 57.9064 16.4363 58.6261 16.4363C59.2784 16.4363 59.672 16.5038 59.807 16.6388L65.7788 22.6106C65.8913 22.723 65.8913 22.8468 65.7788 22.9817L65.2727 23.6228L67.567 25.917C67.7244 26.0745 67.7357 26.2319 67.6007 26.3894L64.463 29.8307C63.6083 30.7754 62.6861 31.5739 61.6964 32.2262C60.7067 32.8785 59.897 33.2047 59.2672 33.2047Z" fill="black"/>
<path d="M52.819 33.1709C52.3017 33.1709 51.9193 33.0472 51.6719 32.7998L48.8041 29.9319L46.746 32.5636C46.5436 32.811 46.105 32.9347 45.4302 32.9347C44.8004 32.9347 44.418 32.8672 44.283 32.7323L42.3936 30.8766C41.4939 32.0013 41.0103 32.5973 40.9429 32.6648C40.7629 32.8448 40.3356 32.9347 39.6608 32.9347C39.0085 32.9347 38.6149 32.8672 38.4799 32.7323L32.5756 26.7942C32.4406 26.6593 32.4181 26.5243 32.5081 26.3893L35.747 22.4081L33.7902 20.4513C33.6327 20.2938 33.6215 20.1251 33.7564 19.9452C34.6112 19.0005 35.1847 18.3819 35.4771 18.0895C36.7592 16.8074 37.8951 16.1664 38.8848 16.1664C39.4021 16.1664 39.7845 16.2901 40.0319 16.5375L41.449 17.9546C42.6861 16.7624 43.7657 16.1664 44.6879 16.1664C45.1827 16.1664 45.5539 16.2901 45.8013 16.5375L47.1509 17.9208C48.4105 16.7512 49.4901 16.1664 50.3898 16.1664C50.9296 16.1664 51.357 16.3238 51.6719 16.6387L54.9446 19.8777C55.0346 19.8777 55.1133 19.9114 55.1808 19.9789L61.1189 25.917C61.2763 26.0744 61.2876 26.2319 61.1526 26.3893C59.893 27.8289 58.8471 28.976 58.0149 29.8307C55.7881 32.0575 54.0561 33.1709 52.819 33.1709Z" fill="black"/>
<path d="M30.6914 33.171L25.9005 28.38C21.6718 31.8214 17.297 33.5421 12.776 33.5421C10.5042 33.5421 8.85097 33.0135 7.8163 31.9563L1.84448 25.9845C1.01225 25.1973 0.59613 24.0501 0.59613 22.5431C0.59613 21.1261 0.989754 20.0239 1.777 19.2367C2.36181 18.6519 3.05909 18.3595 3.86883 18.3595C4.58859 18.3595 5.13967 18.5507 5.52204 18.933L11.4601 24.9049C11.5726 25.0173 11.6851 25.1635 11.7975 25.3435C13.2146 24.5337 14.5754 23.4766 15.88 22.172C15.9249 22.127 15.9699 22.082 16.0149 22.037C16.0599 21.9921 16.0936 21.9583 16.1161 21.9358C16.1611 21.8908 16.2061 21.8571 16.2511 21.8346L16.2848 21.7671L12.4048 17.8871C12.3149 17.7972 12.2699 17.6959 12.2699 17.5835C12.2699 17.2461 12.5173 17.0774 13.0121 17.0774C13.1696 17.0774 13.3833 17.0886 13.6532 17.1111C13.9231 17.1111 14.2267 17.1224 14.5641 17.1449C14.924 17.1674 15.5763 17.1899 16.521 17.2124C17.4657 17.2348 18.6016 17.2461 19.9286 17.2461L20.6034 16.2339C22.4928 13.4223 24.371 11.0831 26.2379 9.21618C29.5443 5.93224 33.3006 3.50302 37.5067 1.92853C39.3511 1.20876 41.8478 0.848877 44.9968 0.848877C45.1093 0.848877 45.188 0.871369 45.233 0.916354L51.1711 6.85444C51.2611 6.96691 51.2835 7.07937 51.2386 7.19183C51.1936 7.3043 51.1148 7.38302 51.0024 7.42801C50.6425 7.54047 50.2714 7.75415 49.889 8.06905C48.8768 8.81131 47.7522 9.80099 46.5151 11.0381C44.6257 12.9275 42.0053 15.9977 38.6539 20.2489C37.9791 21.1261 37.3718 21.8908 36.832 22.5431L40.2059 25.917C40.3633 26.0745 40.3746 26.2319 40.2396 26.3894C38.3502 28.7286 36.9219 30.3819 35.9547 31.349C34.4027 32.901 33.1431 33.677 32.176 33.677C31.5462 33.677 31.0513 33.5084 30.6914 33.171Z" fill="black"/>
<path d="M164.246 25.2085C164.246 23.679 164.842 22.1945 166.034 20.7549C167.158 19.3829 168.463 18.3032 169.948 17.516C171.432 16.7287 172.68 16.3351 173.693 16.3351C174.48 16.3351 174.817 16.7287 174.705 17.516L182.33 8.10275C182.555 7.81034 182.87 7.65289 183.275 7.6304L184.489 7.52918C184.647 7.50669 184.737 7.55168 184.759 7.66414C184.804 7.75411 184.782 7.85533 184.692 7.96779L172.276 23.1504C171.196 24.4775 170.656 25.4447 170.656 26.052C170.656 26.4568 170.836 26.6593 171.196 26.6593C171.668 26.6593 172.231 26.4456 172.883 26.0182C173.535 25.5909 174.277 24.9498 175.11 24.0951C175.942 23.2404 176.56 22.5768 176.965 22.1045C177.393 21.6321 177.977 20.9574 178.72 20.0801C178.765 20.0352 178.81 20.0239 178.855 20.0464C178.922 20.0464 178.967 20.0801 178.99 20.1476C179.012 20.1926 179.001 20.2488 178.956 20.3163C178.911 20.3613 178.686 20.62 178.281 21.0923C177.899 21.5647 177.629 21.8908 177.471 22.0707C177.314 22.2282 177.022 22.5431 176.594 23.0154C176.189 23.4653 175.874 23.8027 175.649 24.0276C175.425 24.2525 175.11 24.5562 174.705 24.9386C174.322 25.3209 173.996 25.6134 173.726 25.8158C173.456 26.0182 173.153 26.2319 172.815 26.4568C172.478 26.6818 172.163 26.8392 171.871 26.9292C171.601 27.0192 171.342 27.0641 171.095 27.0641C170.375 27.0641 170.015 26.648 170.015 25.8158C170.015 24.9611 170.352 23.9714 171.027 22.8467C170.352 23.679 169.813 24.32 169.408 24.7699C169.003 25.2197 168.429 25.7146 167.687 26.2544C166.945 26.7942 166.27 27.0641 165.663 27.0641C164.718 27.0641 164.246 26.4456 164.246 25.2085ZM165.022 26.0857C165.022 26.5131 165.247 26.7267 165.696 26.7267C166.326 26.7267 167.012 26.4118 167.755 25.782C168.497 25.1523 169.441 24.1288 170.589 22.7118L172.883 19.8777C173.468 19.1579 173.85 18.6406 174.03 18.3257C174.232 17.9883 174.334 17.6509 174.334 17.3135C174.334 16.8862 174.097 16.6725 173.625 16.6725C173.04 16.6725 172.163 17.1898 170.993 18.2245C169.846 19.2367 168.71 20.4288 167.586 21.8008C165.876 23.8702 165.022 25.2985 165.022 26.0857Z" fill="white"/>
<path d="M176.084 5.2349C176.084 5.75224 175.893 6.31456 175.51 6.92186C175.128 7.50667 174.521 8.15896 173.688 8.87873C172.879 9.5985 172.114 10.2395 171.394 10.8019C170.674 11.3642 169.673 12.1177 168.391 13.0624C167.109 13.9846 166.12 14.7156 165.422 15.2554L159.923 22.813C159.203 23.8027 158.731 24.5112 158.506 24.9386C158.258 25.3659 158.135 25.7595 158.135 26.1194C158.135 26.4793 158.337 26.6592 158.742 26.6592C160.271 26.6592 162.892 24.4662 166.603 20.0801C166.648 20.0351 166.693 20.0239 166.738 20.0464C166.806 20.0464 166.851 20.0801 166.873 20.1476C166.896 20.1926 166.884 20.2488 166.839 20.3163C162.993 24.8148 160.26 27.0641 158.641 27.0641C157.876 27.0641 157.494 26.6368 157.494 25.782C157.494 24.455 157.943 23.0379 158.843 21.5309C159.72 20.0239 161.025 18.202 162.757 16.0652C165.816 12.2639 168.346 9.35108 170.348 7.32673C172.373 5.27989 173.97 4.25647 175.139 4.25647C175.769 4.25647 176.084 4.58261 176.084 5.2349ZM174.768 4.66134C174.048 4.66134 173.081 5.36986 171.866 6.7869C170.674 8.18146 168.762 10.6894 166.131 14.3107C172.204 9.60974 175.24 6.53948 175.24 5.09995C175.24 4.80754 175.083 4.66134 174.768 4.66134Z" fill="white"/>
<path d="M146.785 25.0398C146.785 23.6227 147.325 22.2169 148.405 20.8224C149.327 19.6303 150.508 18.5844 151.947 17.6846C153.41 16.7849 154.703 16.3351 155.827 16.3351C156.795 16.3351 157.278 16.7849 157.278 17.6846C157.278 19.0792 156.559 20.6312 155.119 22.3406C155.186 22.8355 155.468 23.0829 155.962 23.0829C156.502 23.0829 157.053 22.8467 157.616 22.3744C158.178 21.8795 158.887 21.1148 159.741 20.0801C159.786 20.0351 159.831 20.0239 159.876 20.0464C159.944 20.0464 159.989 20.0801 160.011 20.1476C160.034 20.1926 160.022 20.2488 159.977 20.3163C159.055 21.4184 158.302 22.2282 157.717 22.7455C157.132 23.2404 156.536 23.4878 155.929 23.4878C155.366 23.4878 154.939 23.2853 154.647 22.8805C153.612 24.0501 152.487 25.0398 151.273 25.8495C150.081 26.6593 149.091 27.0641 148.304 27.0641C147.291 27.0641 146.785 26.3893 146.785 25.0398ZM147.494 25.9845C147.494 26.4793 147.753 26.7267 148.27 26.7267C148.9 26.7267 149.743 26.3219 150.8 25.5121C151.88 24.6799 153.072 23.4878 154.377 21.9358C154.332 21.216 154.512 20.53 154.917 19.8777C155.321 19.2029 155.85 18.8093 156.502 18.6968C156.682 18.2695 156.772 17.8421 156.772 17.4147C156.772 16.9199 156.514 16.6725 155.996 16.6725C154.827 16.6725 152.836 18.3819 150.024 21.8008C149.057 22.9929 148.394 23.8926 148.034 24.5C147.674 25.0848 147.494 25.5796 147.494 25.9845Z" fill="white"/>
<path d="M149.271 20.3163C147.719 22.2507 146.088 23.8589 144.379 25.141C142.669 26.4231 140.623 27.604 138.238 28.6836L137.631 29.4596C134.617 33.3059 132.289 36.0725 130.647 37.7594C129.005 39.4464 127.622 40.2899 126.497 40.2899C125.732 40.2899 125.35 39.8063 125.35 38.8391C125.35 37.9394 125.631 37.0509 126.193 36.1737C126.733 35.2965 127.554 34.4417 128.656 33.6095C129.736 32.7773 130.861 32.0125 132.03 31.3153C133.177 30.618 134.594 29.842 136.281 28.9873L138.711 25.6133C137.654 26.5805 136.675 27.0641 135.775 27.0641C134.808 27.0641 134.325 26.4906 134.325 25.3434C134.325 23.9039 135.011 22.3294 136.383 20.62C137.305 19.4728 138.486 18.4719 139.925 17.6172C141.387 16.7624 142.624 16.3351 143.637 16.3351C144.401 16.3351 144.784 16.65 144.784 17.2798C144.784 17.5947 144.716 17.9208 144.581 18.2582L145.492 16.9086C145.605 16.7062 145.998 16.605 146.673 16.605C147.528 16.605 147.876 16.7062 147.719 16.9086L138.711 28.11C140.915 27.0754 142.793 25.9507 144.345 24.7361C145.92 23.5215 147.483 21.9695 149.035 20.0801C149.08 20.0351 149.125 20.0239 149.17 20.0464C149.237 20.0464 149.282 20.0801 149.305 20.1476C149.327 20.1926 149.316 20.2488 149.271 20.3163ZM135.168 26.052C135.168 26.5018 135.404 26.7267 135.877 26.7267C137.114 26.7267 138.654 25.5796 140.499 23.2853L143.131 20.0126C143.985 18.9555 144.413 18.0445 144.413 17.2798C144.413 16.8749 144.199 16.6725 143.772 16.6725C143.052 16.6725 142.298 17.0324 141.511 17.7521C140.746 18.4494 139.633 19.6753 138.171 21.4297C137.069 22.7568 136.293 23.7577 135.843 24.4325C135.393 25.1073 135.168 25.6471 135.168 26.052ZM126.531 39.9525C127.318 39.9525 128.173 39.4689 129.095 38.5017C129.995 37.557 131.086 36.1849 132.368 34.3855L135.809 29.6283C133.245 31.0678 130.939 32.7323 128.893 34.6217C126.823 36.5111 125.789 38.0293 125.789 39.1765C125.789 39.6938 126.036 39.9525 126.531 39.9525Z" fill="white"/>
<path d="M134.051 17.8871C134.051 18.9667 133.275 20.2826 131.723 21.8346C131.588 21.992 131.273 22.2957 130.779 22.7455C130.306 23.1954 129.913 23.5777 129.598 23.8926C129.305 24.1851 129.024 24.5449 128.754 24.9723C128.484 25.3772 128.349 25.7258 128.349 26.0182C128.349 26.4456 128.574 26.6593 129.024 26.6593C130.554 26.6593 133.174 24.4662 136.885 20.0801C136.93 20.0351 136.975 20.0239 137.02 20.0464C137.088 20.0464 137.133 20.0801 137.155 20.1476C137.178 20.1926 137.167 20.2488 137.122 20.3163C133.275 24.8148 130.542 27.0641 128.923 27.0641C128.001 27.0641 127.54 26.558 127.54 25.5459C127.54 24.1513 128.507 22.5093 130.441 20.62C130.509 20.5525 130.677 20.395 130.947 20.1476C131.24 19.8777 131.476 19.6528 131.656 19.4728C131.836 19.2704 132.038 19.0342 132.263 18.7643C132.511 18.4719 132.69 18.202 132.803 17.9546C132.938 17.7071 133.005 17.4822 133.005 17.2798C133.005 16.8974 132.803 16.7062 132.398 16.7062C131.678 16.7062 130.812 17.1673 129.8 18.0895C128.81 18.9892 127.585 20.35 126.123 22.172L122.614 26.4906C122.456 26.693 122.04 26.7942 121.365 26.7942C120.646 26.7942 120.286 26.7267 120.286 26.5918C120.286 26.5693 120.297 26.5355 120.319 26.4906L125.414 20.2151C126.156 19.3379 126.64 18.7193 126.865 18.3594C127.09 17.9771 127.202 17.6284 127.202 17.3135C127.202 16.9086 126.966 16.7062 126.494 16.7062C125.954 16.7062 125.335 16.9536 124.638 17.4485C123.963 17.9208 123.019 18.8768 121.804 20.3163C121.759 20.3613 121.703 20.3838 121.635 20.3838C121.59 20.3613 121.557 20.3275 121.534 20.2826C121.512 20.2151 121.523 20.1476 121.568 20.0801C122.737 18.6856 123.693 17.7184 124.436 17.1786C125.2 16.6162 125.92 16.3351 126.595 16.3351C127.495 16.3351 127.944 16.8299 127.944 17.8196C127.944 18.5844 127.742 19.3716 127.337 20.1813C129.519 17.6172 131.228 16.3351 132.466 16.3351C133.523 16.3351 134.051 16.8524 134.051 17.8871Z" fill="white"/>
<path d="M113.558 27.0641C112.636 27.0641 112.175 26.5243 112.175 25.4447C112.175 24.2526 112.692 23.0155 113.727 21.7334L117.64 16.9087C117.798 16.7062 118.214 16.605 118.889 16.605C119.608 16.605 119.968 16.6725 119.968 16.8075C119.968 16.8299 119.957 16.8637 119.935 16.9087L115.279 22.6443C114.401 23.7465 113.817 24.5225 113.524 24.9723C113.232 25.4222 113.086 25.8046 113.086 26.1195C113.086 26.4793 113.277 26.6593 113.659 26.6593C115.189 26.6593 117.809 24.4662 121.52 20.0801C121.565 20.0352 121.61 20.0239 121.655 20.0464C121.723 20.0464 121.768 20.0801 121.79 20.1476C121.813 20.1926 121.801 20.2488 121.756 20.3163C117.91 24.8149 115.177 27.0641 113.558 27.0641ZM121.622 11.8815C121.622 11.4992 121.768 11.1505 122.06 10.8356C122.375 10.5207 122.746 10.3633 123.174 10.3633C123.736 10.3633 124.017 10.6444 124.017 11.2068C124.017 11.5891 123.86 11.9378 123.545 12.2527C123.252 12.5676 122.892 12.725 122.465 12.725C121.903 12.725 121.622 12.4439 121.622 11.8815Z" fill="white"/>
<path d="M93.4109 34.4867C95.6152 34.4867 97.5383 33.9919 99.1803 33.0022C100.845 32.0125 102.464 30.6292 104.039 28.8523C105.073 27.6827 106.153 26.2431 107.278 24.5337C108.425 22.8018 109.257 21.4747 109.774 20.5525C110.314 19.6303 111.203 18.0445 112.44 15.7953C111.428 16.9649 110.505 17.9883 109.673 18.8655C108.841 19.7203 107.896 20.5975 106.839 21.4972C105.804 22.3744 104.758 23.0492 103.701 23.5215C102.667 23.9939 101.666 24.23 100.699 24.23C99.1915 24.23 98.0669 23.6677 97.3246 22.5431C96.5824 21.396 96.2113 20.0014 96.2113 18.3594C96.2113 16.0652 96.886 13.9846 98.2356 12.1177C92.5674 11.7803 89.7333 10.0934 89.7333 7.05683C89.7333 5.12246 90.7793 3.51422 92.8711 2.23214C94.9629 0.927559 97.5271 0.275269 100.564 0.275269C104.522 0.275269 108.256 1.02878 111.765 2.53579C114.577 1.43365 116.86 0.882573 118.614 0.882573C120.121 0.882573 120.875 1.4224 120.875 2.50205C120.875 3.64918 120.076 4.85254 118.479 6.11214C116.905 7.37173 114.846 8.53011 112.305 9.58727C109.156 10.8918 105.984 11.7016 102.79 12.0165C101.261 13.8609 100.08 15.5366 99.2478 17.0436C98.4155 18.5281 97.9994 19.9227 97.9994 21.2273C97.9994 22.127 98.2581 22.8018 98.7754 23.2516C99.2928 23.679 99.945 23.8927 100.732 23.8927C101.565 23.8927 102.464 23.6677 103.431 23.2179C104.421 22.7455 105.287 22.2394 106.029 21.6996C106.794 21.1373 107.66 20.3838 108.627 19.4391C109.617 18.4719 110.337 17.7409 110.787 17.246C111.236 16.7287 111.821 16.0427 112.541 15.188C112.721 14.963 112.856 14.8056 112.946 14.7156C113.576 13.4335 114.408 12.1852 115.443 10.9706C116.5 9.75596 117.219 9.14866 117.602 9.14866C117.759 9.14866 117.838 9.22738 117.838 9.38483C117.838 9.63225 117.546 10.1046 116.961 10.8019C116.376 11.4992 115.634 12.3201 114.734 13.2648C113.857 14.2095 113.283 14.8506 113.013 15.188C112.451 16.2901 111.799 18.202 111.056 20.9236C110.314 23.6227 109.437 25.7146 108.425 27.1991C106.985 29.3359 104.848 31.1353 102.014 32.5974C99.1803 34.0819 96.3912 34.8241 93.6471 34.8241C91.9151 34.8241 90.5543 34.3968 89.5646 33.542C88.5525 32.6873 88.0464 31.4502 88.0464 29.8307C88.0464 28.6611 88.3275 27.6714 88.8899 26.8617C89.4522 26.0745 90.2282 25.6808 91.2179 25.6808C91.8477 25.6808 92.3537 25.8608 92.7361 26.2207C93.096 26.558 93.2759 27.0304 93.2759 27.6377C93.2759 28.245 93.1073 28.7511 92.7699 29.156C92.41 29.5833 91.9376 29.797 91.3528 29.797C90.858 29.797 90.4644 29.6733 90.172 29.4259C89.8571 29.2009 89.6996 28.8748 89.6996 28.4474C89.6996 28.29 89.7333 28.11 89.8008 27.9076C89.8458 27.7052 89.8683 27.559 89.8683 27.469C89.8683 27.2891 89.7783 27.1991 89.5984 27.1991C89.2835 27.1991 89.0023 27.4353 88.7549 27.9076C88.5075 28.4025 88.3838 29.0435 88.3838 29.8307C88.3838 31.3827 88.8449 32.5411 89.7671 33.3059C90.6893 34.0931 91.9039 34.4867 93.4109 34.4867ZM98.438 11.8141C99.0678 10.9818 99.7314 10.2396 100.429 9.58727C103.128 6.95562 106.715 4.68385 111.191 2.77196C108.38 1.82727 105.253 1.35492 101.812 1.35492C100.71 1.35492 99.5627 1.43365 98.3706 1.5911C97.2009 1.74854 95.9526 2.01846 94.6255 2.40083C93.2984 2.76072 92.2075 3.34553 91.3528 4.15527C90.4981 4.94251 90.0707 5.89846 90.0707 7.0231C90.0707 9.99214 92.8598 11.5891 98.438 11.8141ZM112.372 3.24431C109.358 5.04373 106.266 7.85533 103.094 11.6791C106.243 11.3192 109.268 10.5207 112.17 9.28362C114.712 8.22646 116.736 7.09057 118.243 5.87596C119.772 4.66136 120.537 3.53672 120.537 2.50205C120.537 1.62483 119.941 1.18623 118.749 1.18623C116.882 1.18623 114.891 1.79353 112.777 3.00814C113.699 3.41301 114.678 3.93034 115.712 4.56014C116.005 4.74008 116.095 4.8413 115.982 4.86379C115.915 4.88628 115.78 4.8413 115.578 4.72883C114.228 4.03156 113.16 3.53672 112.372 3.24431Z" fill="white"/>
<path d="M74.6694 26.1532C74.6694 26.5355 74.8718 26.7267 75.2767 26.7267C76.1089 26.7267 77.1211 26.1869 78.3132 25.1073C79.5053 24.0051 80.6412 22.768 81.7208 21.396L83.3403 19.4053C84.1501 18.4157 84.5549 17.6959 84.5549 17.246C84.5549 16.8637 84.33 16.6725 83.8801 16.6725C83.0254 16.6725 82.0582 17.1561 80.9786 18.1233C79.9214 19.0904 78.6281 20.4962 77.0986 22.3406C76.0864 23.6002 75.4341 24.4662 75.1417 24.9386C74.8268 25.4109 74.6694 25.8158 74.6694 26.1532ZM80.8436 27.0641C80.0114 27.0641 79.5953 26.6705 79.5953 25.8833C79.5953 25.231 79.809 24.5 80.2363 23.6902C78.212 25.9395 76.5475 27.0641 75.2429 27.0641C74.3207 27.0641 73.8596 26.4681 73.8596 25.276C73.8596 23.9264 74.4444 22.5543 75.6141 21.1598C76.7162 19.7877 78.077 18.6406 79.6965 17.7184C81.3385 16.7962 82.733 16.3351 83.8801 16.3351C84.6449 16.3351 84.9935 16.7062 84.9261 17.4485L85.3647 16.9086C85.5221 16.7062 85.9157 16.605 86.5455 16.605C87.4003 16.605 87.7489 16.7062 87.5914 16.9086L81.6534 24.0613C80.7986 25.096 80.3713 25.8045 80.3713 26.1869C80.3713 26.5018 80.5512 26.6593 80.9111 26.6593C81.5859 26.6593 82.4856 26.2319 83.6102 25.3772C84.7349 24.5 85.7133 23.634 86.5455 22.7793C87.3778 21.902 88.1763 21.0023 88.941 20.0801C88.986 20.0351 89.031 20.0239 89.076 20.0464C89.1434 20.0464 89.1884 20.0801 89.2109 20.1476C89.2334 20.1926 89.2222 20.2488 89.1772 20.3163C85.3984 24.8148 82.6205 27.0641 80.8436 27.0641Z" fill="white"/>
<path d="M73.7887 17.8871C73.7887 18.9667 73.0127 20.2826 71.4607 21.8346C71.3257 21.992 71.0108 22.2957 70.516 22.7455C70.0437 23.1954 69.65 23.5777 69.3351 23.8926C69.0427 24.1851 68.7616 24.5449 68.4917 24.9723C68.2217 25.3772 68.0868 25.7258 68.0868 26.0182C68.0868 26.4456 68.3117 26.6593 68.7616 26.6593C70.2911 26.6593 72.9115 24.4662 76.6228 20.0801C76.6678 20.0351 76.7128 20.0239 76.7577 20.0464C76.8252 20.0464 76.8702 20.0801 76.8927 20.1476C76.9152 20.1926 76.9039 20.2488 76.859 20.3163C73.0127 24.8148 70.2798 27.0641 68.6603 27.0641C67.7381 27.0641 67.277 26.558 67.277 25.5459C67.277 24.1513 68.2442 22.5093 70.1786 20.62C70.2461 20.5525 70.4148 20.395 70.6847 20.1476C70.9771 19.8777 71.2133 19.6528 71.3932 19.4728C71.5732 19.2704 71.7756 19.0342 72.0005 18.7643C72.2479 18.4719 72.4279 18.202 72.5404 17.9546C72.6753 17.7071 72.7428 17.4822 72.7428 17.2798C72.7428 16.8974 72.5404 16.7062 72.1355 16.7062C71.4157 16.7062 70.5497 17.1673 69.5376 18.0895C68.5479 18.9892 67.322 20.35 65.86 22.172L62.3511 26.4906C62.1937 26.693 61.7776 26.7942 61.1028 26.7942C60.383 26.7942 60.0231 26.7267 60.0231 26.5918C60.0231 26.5693 60.0344 26.5355 60.0569 26.4906L65.1515 20.2151C65.8937 19.3379 66.3773 18.7193 66.6023 18.3594C66.8272 17.9771 66.9397 17.6284 66.9397 17.3135C66.9397 16.9086 66.7035 16.7062 66.2311 16.7062C65.6913 16.7062 65.0728 16.9536 64.3755 17.4485C63.7007 17.9208 62.756 18.8768 61.5414 20.3163C61.4964 20.3613 61.4402 20.3838 61.3727 20.3838C61.3277 20.3613 61.294 20.3275 61.2715 20.2826C61.249 20.2151 61.2602 20.1476 61.3052 20.0801C62.4748 18.6856 63.4308 17.7184 64.173 17.1786C64.9378 16.6162 65.6576 16.3351 66.3324 16.3351C67.2321 16.3351 67.6819 16.8299 67.6819 17.8196C67.6819 18.5844 67.4795 19.3716 67.0746 20.1813C69.2564 17.6172 70.9659 16.3351 72.203 16.3351C73.2601 16.3351 73.7887 16.8524 73.7887 17.8871Z" fill="white"/>
<path d="M53.2954 27.0641C52.3732 27.0641 51.912 26.5243 51.912 25.4447C51.912 24.2526 52.4294 23.0155 53.4641 21.7334L57.3778 16.9087C57.5352 16.7062 57.9514 16.605 58.6261 16.605C59.3459 16.605 59.7058 16.6725 59.7058 16.8075C59.7058 16.8299 59.6945 16.8637 59.672 16.9087L55.016 22.6443C54.1388 23.7465 53.554 24.5225 53.2616 24.9723C52.9692 25.4222 52.823 25.8046 52.823 26.1195C52.823 26.4793 53.0142 26.6593 53.3966 26.6593C54.9261 26.6593 57.5465 24.4662 61.2578 20.0801C61.3028 20.0352 61.3478 20.0239 61.3927 20.0464C61.4602 20.0464 61.5052 20.0801 61.5277 20.1476C61.5502 20.1926 61.5389 20.2488 61.494 20.3163C57.6477 24.8149 54.9148 27.0641 53.2954 27.0641ZM61.359 11.8815C61.359 11.4992 61.5052 11.1505 61.7976 10.8356C62.1125 10.5207 62.4836 10.3633 62.911 10.3633C63.4733 10.3633 63.7545 10.6444 63.7545 11.2068C63.7545 11.5891 63.597 11.9378 63.2821 12.2527C62.9897 12.5676 62.6298 12.725 62.2025 12.725C61.6402 12.725 61.359 12.4439 61.359 11.8815Z" fill="white"/>
<path d="M38.4799 26.4906L43.6083 20.2826C44.3056 19.4278 44.7667 18.8093 44.9916 18.4269C45.239 18.022 45.3627 17.6509 45.3627 17.3135C45.3627 16.9086 45.1265 16.7062 44.6542 16.7062C43.9344 16.7062 43.0797 17.1786 42.09 18.1233C41.1003 19.0455 39.8183 20.485 38.2438 22.4419L34.9711 26.4906C34.8136 26.693 34.3975 26.7942 33.7227 26.7942C33.0029 26.7942 32.6431 26.7267 32.6431 26.5918C32.6431 26.5693 32.6543 26.5355 32.6768 26.4906L37.7714 20.2151C38.5137 19.3379 38.9973 18.7193 39.2222 18.3594C39.4471 17.9771 39.5596 17.6284 39.5596 17.3135C39.5596 16.9086 39.3234 16.7062 38.8511 16.7062C38.3112 16.7062 37.6927 16.9536 36.9954 17.4485C36.3206 17.9208 35.3759 18.8768 34.1613 20.3163C34.1163 20.3613 34.0601 20.3838 33.9926 20.3838C33.9476 20.3613 33.9139 20.3275 33.8914 20.2826C33.8689 20.2151 33.8802 20.1476 33.9252 20.0801C35.0948 18.6856 36.0507 17.7184 36.793 17.1786C37.5577 16.6162 38.2775 16.3351 38.9523 16.3351C39.852 16.3351 40.3018 16.8299 40.3018 17.8196C40.3018 18.5394 40.1107 19.3041 39.7283 20.1139C41.7976 17.5947 43.4621 16.3351 44.7217 16.3351C45.6439 16.3351 46.105 16.8524 46.105 17.8871C46.105 18.5394 45.9813 19.1354 45.7338 19.6753C47.6907 17.4485 49.254 16.3351 50.4236 16.3351C51.4807 16.3351 52.0093 16.8524 52.0093 17.8871C52.0093 18.9667 51.2333 20.2826 49.6813 21.8346C49.5464 21.992 49.2315 22.2957 48.7366 22.7455C48.2643 23.1954 47.8707 23.5777 47.5558 23.8926C47.2634 24.1851 46.9822 24.5449 46.7123 24.9723C46.4424 25.3772 46.3074 25.7258 46.3074 26.0182C46.3074 26.4456 46.5323 26.6593 46.9822 26.6593C48.5117 26.6593 51.1321 24.4662 54.8434 20.0801C54.8884 20.0351 54.9334 20.0239 54.9784 20.0464C55.0458 20.0464 55.0908 20.0801 55.1133 20.1476C55.1358 20.1926 55.1246 20.2488 55.0796 20.3163C51.2333 24.8148 48.5005 27.0641 46.881 27.0641C45.9588 27.0641 45.4977 26.558 45.4977 25.5459C45.4977 24.1513 46.4649 22.5093 48.3992 20.62C48.4667 20.5525 48.6354 20.395 48.9053 20.1476C49.1977 19.8777 49.4339 19.6528 49.6138 19.4728C49.7938 19.2704 49.9962 19.0342 50.2212 18.7643C50.4686 18.4719 50.6485 18.202 50.761 17.9546C50.8959 17.7071 50.9634 17.4822 50.9634 17.2798C50.9634 16.8974 50.761 16.7062 50.3561 16.7062C49.074 16.7062 47.0272 18.4831 44.2156 22.037L40.673 26.4906C40.5155 26.693 40.1219 26.7942 39.4921 26.7942C38.7723 26.7942 38.4237 26.7155 38.4462 26.558C38.4462 26.5355 38.4574 26.5131 38.4799 26.4906Z" fill="white"/>
<path d="M26.2041 27.5365C24.9445 27.5365 24.3147 26.7943 24.3147 25.3097C24.3147 23.4653 25.5406 20.8787 27.9923 17.5497C27.25 17.6172 26.0579 17.6735 24.416 17.7184C21.8293 20.8449 19.0065 23.2404 15.9474 24.9049C12.9109 26.5693 9.8744 27.4016 6.83787 27.4016C2.78918 27.4016 0.764832 25.7821 0.764832 22.5431C0.764832 21.3735 1.05724 20.4176 1.64205 19.6753C2.22686 18.9106 2.96912 18.5282 3.86883 18.5282C4.54361 18.5282 5.0497 18.7081 5.38709 19.068C5.72448 19.4054 5.89318 19.8553 5.89318 20.4176C5.89318 21.0249 5.71324 21.5197 5.35335 21.9021C4.99347 22.262 4.50987 22.4419 3.90257 22.4419C3.40773 22.4419 3.01411 22.3182 2.7217 22.0708C2.4293 21.8234 2.28309 21.4747 2.28309 21.0249C2.28309 20.8899 2.29434 20.7437 2.31683 20.5863C2.36182 20.4288 2.38431 20.3164 2.38431 20.2489C2.38431 20.0914 2.31683 20.0127 2.18187 20.0127C1.91196 20.0127 1.66454 20.2826 1.43961 20.8224C1.21469 21.3623 1.10222 21.9696 1.10222 22.6444C1.10222 24.1514 1.57457 25.2648 2.51927 25.9845C3.48645 26.6818 4.77979 27.0304 6.39927 27.0304C10.9203 27.0304 15.3851 23.9377 19.7937 17.7522C18.1742 17.7522 16.8471 17.7634 15.8125 17.7859C14.7778 17.7859 14.0805 17.7972 13.7207 17.8197C13.3608 17.8197 13.0684 17.8197 12.8434 17.8197C12.5735 17.8197 12.4386 17.7409 12.4386 17.5835C12.4386 17.3586 12.6298 17.2461 13.0121 17.2461C13.1696 17.2461 13.4283 17.2573 13.7881 17.2798C14.148 17.3023 14.834 17.3361 15.8462 17.3811C16.8809 17.4035 18.2754 17.4148 20.0299 17.4148L20.7721 16.3351C25.4056 9.29491 30.9951 4.53769 37.5405 2.06349C39.3849 1.36622 41.8816 1.01758 45.0306 1.01758C45.1205 1.01758 45.1543 1.07381 45.1318 1.18627C45.1093 1.23126 45.0643 1.265 44.9968 1.28749C44.6819 1.37746 44.2883 1.60239 43.816 1.96227C42.219 3.19937 40.5545 4.76262 38.8226 6.65201C37.1131 8.51891 35.0213 11.0381 32.5471 14.2096C32.3222 14.502 31.7036 15.278 30.6914 16.5376C29.6793 17.7972 28.9595 18.7194 28.5321 19.3042C28.1048 19.8665 27.5537 20.6425 26.8789 21.6322C26.2266 22.5994 25.7543 23.4204 25.4619 24.0951C25.192 24.7474 25.057 25.3322 25.057 25.8496C25.057 26.7043 25.4506 27.1317 26.2379 27.1317C26.6877 27.1317 27.1826 26.963 27.7224 26.6256C28.2847 26.2657 28.9595 25.6696 29.7467 24.8374C30.534 24.0052 31.1638 23.3191 31.6361 22.7793C32.131 22.217 32.8845 21.3173 33.8967 20.0802C33.9416 20.0352 33.9866 20.024 34.0316 20.0464C34.0991 20.0464 34.1441 20.0802 34.1666 20.1477C34.1891 20.1926 34.1778 20.2489 34.1328 20.3164C33.1431 21.5535 32.4121 22.4419 31.9398 22.9817C31.4674 23.5216 30.8151 24.2301 29.9829 25.1073C29.1732 25.9845 28.4647 26.6031 27.8573 26.963C27.25 27.3453 26.699 27.5365 26.2041 27.5365ZM27.2163 13.8384C26.5415 14.9181 25.6868 16.1102 24.6521 17.4148C25.6418 17.4148 26.8114 17.3698 28.161 17.2798C29.1507 15.9078 30.3878 14.3558 31.8723 12.6238C33.7392 10.4195 35.6173 8.44019 37.5067 6.68575C39.3961 4.90882 41.5667 3.1319 44.0184 1.35497C41.4317 1.44494 39.3736 1.79358 37.8441 2.40088C37.0794 2.71578 36.3709 3.06442 35.7186 3.4468C35.0888 3.80668 34.4815 4.25653 33.8967 4.79636C33.3343 5.31369 32.8395 5.78604 32.4121 6.2134C31.9848 6.64077 31.5124 7.22558 30.9951 7.96784C30.5002 8.7101 30.0954 9.30616 29.7805 9.75601C29.4881 10.1834 29.0607 10.8582 28.4984 11.7804C27.9361 12.7026 27.5087 13.3886 27.2163 13.8384Z" fill="white"/>
</svg>
